/* XPM */
static char *a89b6be1c97a4bfae2063600b9cabbd6[] = {
/* columns rows colors chars-per-pixel */
"16 16 118 2 ",
"   c #34332F",
".  c #3D3A3A",
"X  c #3D3A3B",
"o  c #403E3C",
"O  c #413D3E",
"+  c #58683D",
"@  c #423F40",
"#  c #595556",
"$  c #605E5E",
"%  c #576144",
"&  c #5B6647",
"*  c #616B4E",
"=  c #62645A",
"-  c #687552",
";  c #646262",
":  c #696966",
">  c #6E6C6C",
",  c #716F6F",
"<  c #747171",
"1  c #839864",
"2  c #81906A",
"3  c #8E977E",
"4  c #909E79",
"5  c #95A67B",
"6  c #97A97D",
"7  c #9AB277",
"8  c #868584",
"9  c #868585",
"0  c #878686",
"q  c #95978D",
"w  c #9BA689",
"e  c #9CA988",
"r  c #A4B48C",
"t  c #AAB498",
"y  c #ACB899",
"u  c #B2BF9E",
"i  c #A9A7A8",
"p  c #AFB3A6",
"a  c gray69",
"s  c #B7CA9A",
"d  c #B7D290",
"f  c #B7C3A3",
"g  c #BACAA2",
"h  c #BCC8A9",
"j  c #BDCBA9",
"k  c #BDC8AC",
"l  c #C2DAA1",
"z  c #C4D9A5",
"x  c #C6DDA4",
"c  c #C7DDA7",
"v  c #C0D2A9",
"b  c #C8DDA9",
"n  c #C9DEAA",
"m  c #CBDFAC",
"M  c #CBDFAD",
"N  c #CADCAE",
"B  c #C7D4B3",
"V  c #C7D3B5",
"C  c #C9D5B7",
"Z  c #CBD6BA",
"A  c #CFDBBE",
"S  c #CFDCBC",
"D  c #D1DEBD",
"F  c #D1E3B7",
"G  c #D3E4BA",
"H  c #D4E4BB",
"J  c #C5C5C5",
"K  c #CECFCC",
"L  c #D1DCC1",
"P  c #D2DEC1",
"I  c gray83",
"U  c #DADADA",
"Y  c #D4E1C1",
"T  c #D6E1C5",
"R  c #D8E3C7",
"E  c #D8E8C2",
"W  c #DAE8C3",
"Q  c #DAE8C5",
"!  c #DBE8C6",
"~  c #DBE9C6",
"^  c #DBE5CB",
"/  c #DDEBC9",
"(  c #DEEACB",
")  c #E0EBCF",
"_  c #E0ECCF",
"`  c #E1EDD0",
"'  c #E2EDD2",
"]  c #E3EBD6",
"[  c #E3EDD5",
"{  c #E4EED5",
"}  c #E5EFD6",
"|  c #E8F1DB",
" . c #E9F2DD",
".. c #EAF2DD",
"X. c #EAF2DF",
"o. c gray88",
"O. c #EAF0E0",
"+. c #ECF2E2",
"@. c #EDF3E3",
"#. c #EDF4E4",
"$. c #F0F6E9",
"%. c #F3F8EC",
"&. c #F5F9F0",
"*. c #F6F9F0",
"=. c #F6FAF1",
"-. c #F7FAF3",
";. c #F8FBF3",
":. c #F8FBF4",
">. c #F9FBF5",
",. c #F9FBF6",
"<. c #FBFCF8",
"1. c #FBFDF9",
"2. c #FCFDFA",
"3. c #FDFEFC",
"4. c #FEFEFD",
"5. c #FEFFFE",
"6. c gray100",
"7. c None",
/* pixels */
"7.7.7.7.7.7.+ & = < 9 7.7.7.7.7.",
"7.7.7.7.c ) ,.6...u q i 7.7.7.7.",
"7.7.7.} A N E <.6.6.T p J 7.7.7.",
"7.7.$.4 : 7.7.7.*.6.6.D K I 7.7.",
"7...^ o $ 7.7.7.z 6.6.3.C o.7.7.",
"n 6.k X ; 7.7.7.Y 6.6.6.R U 7.7.",
"/ 6.L X , 7.v ;.Q d 6.6.B 7.7.7.",
"' 6.*.% e +.| 7.7.g ,.Q 7.7.7.7.",
"_ 6.6...%.j 7.6 ] #.l 7.7.7.7.9 ",
"E 6.6.,.- 3 V ;.F 7.7.7.7.7.7 a ",
"7.6.6.6.S *.Z 1 7.7.7.7.7.7.f 7.",
"7.} 6.6.6.5   O 7.7.7.7.r } 2 7.",
"7.7.<.6.6.O.* O # > 8 y +.s 7.7.",
"7.7.b 6.6.6.,.h w t D 3.G 7.7.7.",
"7.7.7.c ,.6.6.6.6.6.*.N 7.7.7.7.",
"7.7.7.7.7.H / _ ~ N 7.7.7.7.7.7."
};
