/* XPM */
static char *_c34c5282c40408bad9916294c0ac9d7[] = {
/* columns rows colors chars-per-pixel */
"32 32 140 2 ",
"   c #2C2829",
".  c #312D2E",
"X  c #373B29",
"o  c #343031",
"O  c #3D3A3B",
"+  c #413D3F",
"@  c #3E432F",
"#  c #3D4032",
"$  c #474E35",
"%  c #414239",
"&  c #56643B",
"*  c #576A3A",
"=  c #433F40",
"-  c #494546",
";  c #4B4847",
":  c #4D4B4B",
">  c #535A43",
",  c #534F50",
"<  c #565454",
"1  c #5F5C5C",
"2  c #605D5D",
"3  c #596345",
"4  c #5E654F",
"5  c #637544",
"6  c #657944",
"7  c #6B7E4A",
"8  c #63665A",
"9  c #6A7753",
"0  c #737F5D",
"q  c #666363",
"w  c #686666",
"e  c #6A6C64",
"r  c #696768",
"t  c #6C6B6B",
"y  c #707464",
"u  c #727071",
"i  c #797777",
"p  c gray49",
"a  c #807E7E",
"s  c #6C8F41",
"d  c #6D824A",
"f  c #708550",
"g  c #748B50",
"h  c #798F57",
"j  c #7E935C",
"k  c #7E8969",
"l  c #7F9262",
"z  c #809D55",
"x  c #849D5D",
"c  c #81A154",
"v  c #85A05A",
"b  c #93BE55",
"n  c #97BD5F",
"m  c #829763",
"M  c #828578",
"N  c #8E9E75",
"B  c #87A060",
"V  c #88A261",
"C  c #8EA867",
"Z  c #8DA46A",
"A  c #91A76E",
"S  c #97B46E",
"D  c #94A676",
"F  c #95AC71",
"G  c #93A27D",
"H  c #9AAE7A",
"J  c #99B273",
"K  c #9DB37B",
"L  c #A2BB7C",
"P  c #96C05A",
"I  c #9CC362",
"U  c #9EC468",
"Y  c #A1C66B",
"T  c #A6C973",
"R  c #AACB79",
"E  c #858383",
"W  c #8E8C8D",
"Q  c #8E9581",
"!  c #94968E",
"~  c #929292",
"^  c #9D9C9B",
"/  c #A0B481",
"(  c #A4AA99",
")  c #ABB996",
"_  c #ABB39B",
"`  c #A5A4A4",
"'  c #ACAFA6",
"]  c #A9A7A8",
"[  c #ABA9AA",
"{  c #AEB0A8",
"}  c #B9B7B8",
"|  c #BCBBBB",
" . c #ACC487",
".. c #AECC82",
"X. c #AFC88B",
"o. c #B0CD84",
"O. c #B1CC8C",
"+. c #B2D085",
"@. c #B4D289",
"#. c #B5CB94",
"$. c #B8CE97",
"%. c #B9CC9D",
"&. c #B7D191",
"*. c #BBD495",
"=. c #BDD49B",
"-. c #BFD99B",
";. c #BECEA6",
":. c #BFD5A0",
">. c #C1D99E",
",. c #C1D7A0",
"<. c #C5DBA4",
"1. c #C9DEAB",
"2. c #C2C6BA",
"3. c #CEE1B3",
"4. c #D0E3B6",
"5. c #D4E4BB",
"6. c #C0BFC0",
"7. c #C8C7C7",
"8. c #CDD3C2",
"9. c #D4D4D4",
"0. c #D8D7D7",
"q. c gray85",
"w. c #D7E7C1",
"e. c #DAE8C5",
"r. c #DEEBCB",
"t. c #E0ECCF",
"y. c #E3EED3",
"u. c #E6F0D7",
"i. c #E7F0D9",
"p. c #EAF2DD",
"a. c #E8E7E8",
"s. c gray91",
"d. c #EDF4E3",
"f. c #F0F6E7",
"g. c #F1F7E9",
"h. c #F4F8ED",
"j. c #F6FAF1",
"k. c #F9FBF5",
"l. c #FFFFFF",
"z. c None",
/* pixels */
"z.z.z.z.z.z.z.z.z.z.z.z.z.z.+ - < 1 r u z.z.z.z.z.z.z.z.z.z.z.z.",
"z.z.z.z.z.z.z.z.z.z.z.z.* 5 7 7 9 e u p W W z.z.z.z.z.z.z.z.z.z.",
"z.z.z.z.z.z.z.z.z.z...4.d.k.l.k.i.<.Z M W ^ [ ~ z.z.z.z.z.z.z.z.",
"z.z.z.z.z.z.z.z.*.d.l.l.l.l.l.l.l.l.k.,.N ^ [ } ` z.z.z.z.z.z.z.",
"z.z.z.z.z.z.R i.l.j.t.r.h.l.l.l.l.l.l.l.r.H [ } 7.` z.z.z.z.z.z.",
"z.z.z.z.z.>.l.k.=.Z z.z.z.@.d.l.l.l.l.l.l.t./ } 7.0.z.z.z.z.z.z.",
"z.z.z.z.3.l.d.B e u z.z.z.z.b e.l.l.l.l.l.l.e.) 7.0.0.z.z.z.z.z.",
"z.z.z.<.l.k.x ; w z.z.z.z.z.z.z.t.l.l.l.l.l.l.-.2.0.s.| z.z.z.z.",
"z.z.+.l.l.3.O - q z.z.z.z.z.z.z.I h.l.l.l.l.l.k.X.0.s.0.z.z.z.z.",
"z.z.g.l.l.K . ; 8 z.z.z.z.z.z.z.z.O.l.l.l.l.l.l.4.8.s.0.z.z.z.z.",
"z.-.l.l.l.j o - w z.z.z.z.z.z.z.z 1.l.l.l.l.l.l.h.%.s.9.z.z.z.z.",
"z.p.l.l.l.h . - w z.z.z.z.z.s O.h.l.l.l.l.l.l.l.l.#.a.z.z.z.z.z.",
"Y l.l.l.l.A . - w u z.z.z.S u.l.l.f.@.4.l.l.l.l.d.;.| z.z.z.z.z.",
"*.l.l.l.l.$.o - w E z.c 4.l.l.k.<.z.z.n k.l.l.l.>.{ z.z.z.z.z.z.",
",.l.l.l.l.r.$ - q l $.k.l.l.w.U z.z.z.S u.l.l.r.z z.z.z.z.z.z.z.",
"<.l.l.l.l.k.g 3 L p.l.l.p.o.z.z.z.m =.j.l.l.5.z.z.z.z.z.z.z.z.z.",
"<.l.l.l.l.l.3.e.l.l.j.=.z.z.z.9 L p.l.l.d.o.z.z.z.z.z.z.z.z.< t ",
"-.l.l.l.l.l.l.l.l.4.F ' z.> B w.l.l.k.>.z.z.z.z.z.z.z.z.z.p ` z.",
"R l.l.l.l.l.l.d.C 4 a ^ f :.k.l.l.5.I z.z.z.z.z.z.z.z.z.z.G 7.z.",
"z.h.l.l.l.l.l.j.6 : k L d.l.l.u.R z.z.z.z.z.z.z.z.z.z.z.+.D [ z.",
"z.4.l.l.l.l.l.l.-.B r.l.l.j.*.z.z.z.z.z.z.z.z.z.z.z.z.b y.G ^ z.",
"z.R l.l.l.l.l.l.k.l.l.l.1.d % z.z.z.z.z.z.z.z.z.z.z.z.w.w.Q z.z.",
"z.z.r.l.l.l.l.l.l.l.r.x @ o O = z.z.z.z.z.z.z.z.z.z.*.l.L u z.z.",
"z.z.T l.l.l.l.l.l.l.=.X   o O - : z.z.z.z.z.z.z.( *.l.e.9 z.z.z.",
"z.z.z.3.l.l.l.l.l.l.l. .@ o O - , 2 r t i E ^ _ *.k.k.x z.z.z.z.",
"z.z.z.P g.l.l.l.l.l.l.l.=.& O - , 2 r i E ! K 3.l.l.o.z.z.z.z.z.",
"z.z.z.z.R k.l.l.l.l.l.l.l.t.J 5 4 8 y k A -.h.l.l.1.z.z.z.z.z.z.",
"z.z.z.z.z.+.l.l.l.l.l.l.l.l.l.h.e.4.5.y.l.l.l.l.1.z.z.z.z.z.z.z.",
"z.z.z.z.z.z.o.k.l.l.l.l.l.l.l.l.l.l.l.l.l.l.k.=.z.z.z.z.z.z.z.z.",
"z.z.z.z.z.z.z.Y y.l.l.l.l.l.l.l.l.l.l.l.l.e.T z.z.z.z.z.z.z.z.z.",
"z.z.z.z.z.z.z.z.z.&.t.l.l.l.l.l.l.l.d.1.Y z.z.z.z.z.z.z.z.z.z.z.",
"z.z.z.z.z.z.z.z.z.z.z.I @.-.>.-.@.I z.z.z.z.z.z.z.z.z.z.z.z.z.z."
};
