/* XPM */
static char *_a8d6ab182ad48acf38578295eada677[] = {
/* columns rows colors chars-per-pixel */
"64 64 215 2 ",
"   c #272324",
".  c #292626",
"X  c #2D292A",
"o  c #322E2F",
"O  c #34342C",
"+  c #363233",
"@  c #393636",
"#  c #3B3A34",
"$  c #3B3738",
"%  c #3D3A3B",
"&  c #403C3D",
"*  c #3B412B",
"=  c #3E4132",
"-  c #424D2E",
";  c #46522F",
":  c #404136",
">  c #475132",
",  c #4A5537",
"<  c #4A5B34",
"1  c #4E593A",
"2  c #506232",
"3  c #566B39",
"4  c #5B6D3D",
"5  c #5C7237",
"6  c #5C723C",
"7  c #627C39",
"8  c #433F40",
"9  c #454343",
"0  c #4A4747",
"q  c #4A4748",
"w  c #4E4B4B",
"e  c #514D4E",
"r  c #4F5441",
"t  c #555E41",
"y  c #54574C",
"u  c #56584E",
"i  c #534F50",
"p  c #555353",
"a  c #585656",
"s  c #595D50",
"d  c #5C5A5A",
"f  c #605D5E",
"g  c #5C6C41",
"h  c #626C4F",
"j  c #637841",
"k  c #67734F",
"l  c #6A7C4D",
"z  c #676F55",
"x  c #636758",
"c  c #676F58",
"v  c #667450",
"b  c #6E7B57",
"n  c #6C745B",
"m  c #707A5E",
"M  c #625F60",
"N  c #646263",
"B  c #686666",
"V  c #6A6B65",
"C  c #6A6768",
"Z  c #6E6C6C",
"A  c #716E6F",
"S  c #747D66",
"D  c #767474",
"F  c #787777",
"G  c #787872",
"H  c #797778",
"J  c #7C7A7A",
"K  c #817F7F",
"L  c #65823C",
"P  c #68833D",
"I  c #6D8B3E",
"U  c #72943E",
"Y  c #658243",
"T  c #6B8741",
"R  c #6C804A",
"E  c #708C46",
"W  c #748F4C",
"Q  c #6E9240",
"!  c #739344",
"~  c #779A42",
"^  c #7A9D45",
"/  c #779648",
"(  c #7D9D4D",
")  c #758B51",
"_  c #7A9551",
"`  c #7E935D",
"'  c #7DA445",
"]  c #7FA348",
"[  c #778560",
"{  c #7A8763",
"}  c #7C8C62",
"|  c #7B866B",
" . c #82985F",
".. c #82AC45",
"X. c #81A54C",
"o. c #84AC4A",
"O. c #88AF4E",
"+. c #87B247",
"@. c #8AB747",
"#. c #8AB947",
"$. c #87B04A",
"%. c #8AB44C",
"&. c #8CB94A",
"*. c #85A654",
"=. c #88AE52",
"-. c #88A759",
";. c #8CAF58",
":. c #8DB553",
">. c #8EB950",
",. c #8FB35A",
"<. c #91BC53",
"1. c #90B15F",
"2. c #95BF59",
"3. c #839565",
"4. c #889E65",
"5. c #818775",
"6. c #868F76",
"7. c #83827F",
"8. c #869171",
"9. c #8D9B74",
"0. c #8B917D",
"q. c #8BA265",
"w. c #92AB6D",
"e. c #95B863",
"r. c #98BC63",
"t. c #97B669",
"y. c #9CBF6A",
"u. c #98AF74",
"i. c #94A27F",
"p. c #A0BA77",
"a. c #97C05B",
"s. c #99C15E",
"d. c #9CC363",
"f. c #9FC568",
"g. c #A1C66B",
"h. c #A4C86F",
"j. c #A5C972",
"k. c #A8CB76",
"l. c #A5C07B",
"z. c #ABCC7B",
"x. c #848282",
"c. c #888787",
"v. c #868983",
"b. c #8A8788",
"n. c #8B898A",
"m. c #908F8F",
"M. c #959F82",
"N. c #94938F",
"B. c #918F90",
"V. c #939292",
"C. c #989696",
"Z. c #9D9C9C",
"A. c #A19F9F",
"S. c #9DAC85",
"D. c #9FB281",
"F. c #A8BF86",
"G. c #A2B28B",
"H. c #A9B694",
"J. c #ACBF90",
"K. c #A19FA0",
"L. c #A5A4A4",
"P. c #A8A7A7",
"I. c #ACABAB",
"U. c #ADB0A5",
"Y. c #B1AFB0",
"T. c #B5B4B4",
"R. c #B8B7B6",
"E. c #B8BBB0",
"W. c #BDBCBD",
"Q. c #AAC482",
"!. c #AFCE81",
"~. c #ACC28A",
"^. c #B0CF82",
"/. c #B1C78F",
"(. c #B2D085",
"). c #B5D28B",
"_. c #B8D48F",
"`. c #BBD693",
"'. c #BDD798",
"]. c #BFD89A",
"[. c #C1D99D",
"{. c #C5DCA4",
"}. c #CADFAB",
"|. c #C4CDB5",
" X c #CCE0AE",
".X c #CFE2B3",
"XX c #D1E3B6",
"oX c #D4E5BA",
"OX c #C4C3C3",
"+X c #C6CAC0",
"@X c #CCCBCC",
"#X c #D0CFCF",
"$X c #CBD0C1",
"%X c #D3D3D3",
"&X c #DCDBDB",
"*X c #D7E7C0",
"=X c #D8E7C2",
"-X c #DAE9C4",
";X c #DEEBCB",
":X c #E0EDCF",
">X c #E3EED3",
",X c #E6F0D7",
"<X c #E7F1D9",
"1X c #E9F2DD",
"2X c #E4E4E4",
"3X c #ECECEC",
"4X c #EDF4E3",
"5X c #F0F6E7",
"6X c #F1F7EA",
"7X c #F4F8EE",
"8X c #F5F5F5",
"9X c #F6FAF2",
"0X c #F9FBF5",
"qX c #FFFFFF",
"wX c None",
/* pixels */
"wXwXwXwXwXwXwXwXwXwXwXwXwXwXwXwXwXwXwXwXwXwXwXwXwXwXwXwXwXwXwX9 q i p d d d d wXwXwXwXwXwXwXwXwXwXwXwXwXwXwXwXwXwXwXwXwXwXwXwXwX",
"wXwXwXwXwXwXwXwXwXwXwXwXwXwXwXwXwXwXwXwXwXwXwXwXwXwXwX@ % q w p a d N C Z D J x.F C wXwXwXwXwXwXwXwXwXwXwXwXwXwXwXwXwXwXwXwXwXwX",
"wXwXwXwXwXwXwXwXwXwXwXwXwXwXwXwXwXwXwXwXwXwXwXwXwX+ $ % : q w i a d N C A D J x.b.B.B.Z wXwXwXwXwXwXwXwXwXwXwXwXwXwXwXwXwXwXwXwX",
"wXwXwXwXwXwXwXwXwXwXwXwXwXwXwXwXwXwXwXwXwXwXwX4 P ~ ..%.>.%.+.o.( ) m C A F J x.b.B.C.A.V.N wXwXwXwXwXwXwXwXwXwXwXwXwXwXwXwXwXwX",
"wXwXwXwXwXwXwXwXwXwXwXwXwXwXwXwXwXwXwXwX..' <.(..X>X6X0XqX0X0X5X;X[.f.$.` G J x.b.B.C.Z.L.I.J wXwXwXwXwXwXwXwXwXwXwXwXwXwXwXwXwX",
"wXwXwXwXwXwXwXwXwXwXwXwXwXwXwXwXwXwX#.&._.;XqXqXqXqXqXqXqXqXqXqXqXqXqX<X(.%.3.x.n.B.C.A.L.I.T.n.wXwXwXwXwXwXwXwXwXwXwXwXwXwXwXwX",
"wXwXwXwXwXwXwXwXwXwXwXwXwXwXwXwX&.<.{.9XqXqXqXqXqXqXqXqXqXqXqXqXqXqXqXqXqX1Xz.=.0.B.C.A.L.I.T.W.C.wXwXwXwXwXwXwXwXwXwXwXwXwXwXwX",
"wXwXwXwXwXwXwXwXwXwXwXwXwXwX#.>.[.9XqXqXqXqXqXqXqXqXqXqXqXqXqXqXqXqXqXqXqXqXqXoX:.9.C.A.L.Y.T.W.OXZ.wXwXwXwXwXwXwXwXwXwXwXwXwXwX",
"wXwXwXwXwXwXwXwXwXwXwXwXwX&.(.5XqXqXqXqXqXqXqXqXqXqXqXqXqXqXqXqXqXqXqXqXqXqXqXqX1Xs.w.Z.L.I.T.W.OX@XV.wXwXwXwXwXwXwXwXwXwXwXwXwX",
"wXwXwXwXwXwXwXwXwXwXwX#.s.;XqXqXqXqXqX<X}.`.`.[.-X0XqXqXqXqXqXqXqXqXqXqXqXqXqXqXqX7Xh.w.L.I.T.W.OX@X%Xx.wXwXwXwXwXwXwXwXwXwXwXwX",
"wXwXwXwXwXwXwXwXwXwX#.!.9XqXqXqXqXXXd.:.( wXwX&.&.>.).1XqXqXqXqXqXqXqXqXqXqXqXqXqXqX0Xg.u.I.T.W.OX@X%X%XwXwXwXwXwXwXwXwXwXwXwXwX",
"wXwXwXwXwXwXwXwXwX&.{.qXqXqXqX>Xg.*.8.J wXwXwXwXwXwXwX&.'.0XqXqXqXqXqXqXqXqXqXqXqXqXqX9Xf.D.T.W.OX@X%X&XW.wXwXwXwXwXwXwXwXwXwXwX",
"wXwXwXwXwXwXwXwX&.oXqXqXqXqX{.$.b A 7.wXwXwXwXwXwXwXwXwX&.d.5XqXqXqXqXqXqXqXqXqXqXqXqXqX5X2.H.W.OX@X%X&X2XZ.wXwXwXwXwXwXwXwXwXwX",
"wXwXwXwXwXwXwX&.oXqXqXqXqX`.^ y f A C wXwXwXwXwXwXwXwXwXwXwX2.4XqXqXqXqXqXqXqXqXqXqXqXqXqX>X:.E.OX@X%X&X2X2XwXwXwXwXwXwXwXwXwXwX",
"wXwXwXwXwXwX&..XqXqXqXqX{.^ 9 i f A d wXwXwXwXwXwXwXwXwXwXwXwX2.4XqXqXqXqXqXqXqXqXqXqXqXqXqX{.r.OX@X%X&X2X3XT.wXwXwXwXwXwXwXwXwX",
"wXwXwXwXwX@.[.qXqXqXqX1X%.: & i f A wXwXwXwXwXwXwXwXwXwXwXwXwXwXd.9XqXqXqXqXqXqXqXqXqXqXqXqXqXg.J.@X%X&X2X3X3XwXwXwXwXwXwXwXwXwX",
"wXwXwXwXwXj.qXqXqXqXqX(.3 + 8 w f Z wXwXwXwXwXwXwXwXwXwXwXwXwXwX#.(.qXqXqXqXqXqXqXqXqXqXqXqXqX4X<.|.%X&X2X3X0XC.wXwXwXwXwXwXwXwX",
"wXwXwXwX<.5XqXqXqXqX0X:.O + 8 i f C wXwXwXwXwXwXwXwXwXwXwXwXwXwXwX#.XXqXqXqXqXqXqXqXqXqXqXqXqXqX{.l.%X&X2X3X8XY.wXwXwXwXwXwXwXwX",
"wXwXwX@. XqXqXqXqXqX:XU X + & w f B wXwXwXwXwXwXwXwXwXwXwXwXwXwXwXwX<.9XqXqXqXqXqXqXqXqXqXqXqXqX0X2.$X&X2X3X8XR.wXwXwXwXwXwXwXwX",
"wXwXwXd.0XqXqXqXqXqX}.5 X + 8 i f C wXwXwXwXwXwXwXwXwXwXwXwXwXwXwXwX^ ).qXqXqXqXqXqXqXqXqXqXqXqXqX'./.&X2X3X8XR.wXwXwXwXwXwXwXwX",
"wXwX@.oXqXqXqXqXqXqX_.< X + & i f Z wXwXwXwXwXwXwXwXwXwXwXwXwXwXwXY %.`.qXqXqXqXqXqXqXqXqXqXqXqXqX;Xy.&X2X3X8XL.wXwXwXwXwXwXwXwX",
"wXwX<.qXqXqXqXqXqXqX^.- X + 8 w f A wXwXwXwXwXwXwXwXwXwXwXwXwX3 ' j.1XqXqXqXqXqXqXqXqXqXqXqXqXqXqX7X<.&X2X3X8XwXwXwXwXwXwXwXwXwX",
"wX&.[.qXqXqXqXqXqXqXz.- X + 9 i f A d wXwXwXwXwXwXwXwXwXwXwXQ 2.oXqXqXqXqXqXqXqXqXqXqXqXqXqXqXqXqX0X>.&X2X3X@XwXwXwXwXwXwXwXwXwX",
"wX#.1XqXqXqXqXqXqXqX(.; X + & w f A B wXwXwXwXwXwXwXwXwXL %.[.0XqXqXqXqXqXqXqXqXqXqXqXqXqXqXqXqXqX0X>.&X2X3Xx.wXwXwXwXwXwXwXwXwX",
"wXd.qXqXqXqXqXqXqXqX'.2 X + & i f A F wXwXwXwXwXwXwX3 ' z.5XqXqXqXqXqXqX6X(.[.qXqXqXqXqXqXqXqXqXqX<Xr.&X2XT.wXwXwXwXwXwXwXwXwXwX",
"wX_.qXqXqXqXqXqXqXqX.X7 X + 9 i f A x.wXwXwXwXwX< Q d.-XqXqXqXqXqXqXqX{.&.&.>.5XqXqXqXqXqXqXqXqXqX{.Q.&XW.wXwXwXwXwXwXwXwXwXwXwX",
"#..XqXqXqXqXqXqXqXqX,XU X + & i f A x.A wXwXwXL >.}.0XqXqXqXqXqXqX=Xs.#.wXwXwX(.qXqXqXqXqXqXqXqXqXs.|.Y.wXwXwXwXwXwXwXwXwXwXwXwX",
"#.>XqXqXqXqXqXqXqXqXqX%.X + 8 w f A x.B.wX3 ..(.6XqXqXqXqXqXqX5Xz.#.wXwXwXwXwX+.,XqXqXqXqXqXqXqXXXy.L.wXwXwXwXwXwXwXwXwXwXwXwXwX",
"&.6XqXqXqXqXqXqXqXqXqXk.> + 9 i f A K S ~ g.>XqXqXqXqXqXqX9X'.&.wXwXwXwXwXwXv.t.k.qXqXqXqXqXqX4X:.| wXwXwXwXwXwXwXwXwXwXwXwXwXwX",
"&.0XqXqXqXqXqXqXqXqXqX XP + & i f V W <..XqXqXqXqXqXqXqXXX2.#.wXwXwXwXwXZ i.>.(.5XqXqXqXqXqX7Xd.T wXwXwXwXwXwXwXwXwXwXwXwXwXwXwX",
">.qXqXqXqXqXqXqXqXqXqX6X%.# 9 w l $._.9XqXqXqXqXqXqX1Xj.#.wXwXwXwXwXp 5.1.d.;XqXqXqXqXqXqX5Xd.+.wXwXwXwXwXwXwXwXwXwXwXwXwXwXwXwX",
"&.qXqXqXqXqXqXqXqXqXqXqX^.4 t ] k.1XqXqXqXqXqXqX7X).&.wXwXwXwXwXwXV q.<.}.qXqXqXqXqXqXqXXX<.wXwXwXwXwXwXwXwXwXwXwXwXwXwXwXwXwXwX",
"&.0XqXqXqXqXqXqXqXqXqXqX,X@.a.=XqXqXqXqXqXqX0X X<.&.wXwXwXwXwXa } >.).7XqXqXqXqXqXqX1Xk.#.wXwXwXwXwXwXwXwXwXwXwXwXwXwXwXwX9 9 wX",
"#.9XqXqXqXqXqXqXqXqXqXqXqX X0XqXqXqXqXqXqX>Xf.+.wXwXwXwXwX0 c *.g.>XqXqXqXqXqXqX9X'.>.wXwXwXwXwXwXwXwXwXwXwXwXwXwXwXwXwXp N Z.wX",
"#.1XqXqXqXqXqXqXqXqXqXqXqXqXqXqXqXqXqX5X^.:.H.n.wXwXwXwXy _ 2..XqXqXqXqXqXqXqX.Xa.&.wXwXwXwXwXwXwXwXwXwXwXwXwXwXwXwXwXB F Y.I.wX",
"%.-XqXqXqXqXqXqXqXqXqXqXqXqXqXqXqX0X{.>. .N.T.OXwXwX: l %.'.0XqXqXqXqXqXqX,Xg.#.wXwXwXwXwXwXwXwXwXwXwXwXwXwXwXwXwXwXwXB.Z.#XZ.wX",
"#.{.qXqXqXqXqXqXqXqXqXqXqXqXqXqX-Xd.! x D V.T.#XN t ] k.1XqXqXqXqXqXqX6X).&.wXwXwXwXwXwXwXwXwXwXwXwXwXwXwXwXwXwXwXwXG.c.R.#XwXwX",
"wXz.qXqXqXqXqXqXqXqXqXqXqXqXqX`.] > 9 d D V.C.s ! s.=XqXqXqXqXqXqXqX}.<.&.wXwXwXwXwXwXwXwXwXwXwXwXwXwXwXwXwXwXwXwX&.O.A.T.OXwXwX",
"wX>.qXqXqXqXqXqXqXqXqXqXqXqXqX=X~ o 9 a D Z j %.{.0XqXqXqXqXqXqX;Xd.#.wXwXwXwXwXwXwXwXwXwXwXwXwXwXwXwXwXwXwXwXwX#.(.O.A.R.I.wXwX",
"wX#.;XqXqXqXqXqXqXqXqXqXqXqXqXqXg.1 9 a v ' !.5XqXqXqXqXqXqX4X(.&.wXwXwXwXwXwXwXwXwXwXwXwXwXwXwXwXwXwXwXwXwXwXwX2.,X=.Z.T.C.wXwX",
"wXwX_.qXqXqXqXqXqXqXqXqXqXqXqXqX=X^ 1 / f.;XqXqXqXqXqXqX0X[.>.wXwXwXwXwXwXwXwXwXwXwXwXwXwXwXwXwXwXwXwXwXwXwXwX#.oX,X=.Z.R.x.wXwX",
"wXwX<.0XqXqXqXqXqXqXqXqXqXqXqXqXqXg.<.}.qXqXqXqXqXqXqX=Xa.&.wXwXwXwXwXwXwXwXwXwXwXwXwXwXwXwXwXwXwXwXwXwXwXwXwXk.qXoX-.K.Y.wXwXwX",
"wXwX#.XXqXqXqXqXqXqXqXqXqXqXqXqXqX4X6XqXqXqXqXqXqX<Xk.^ 1 wXwXwXwXwXwXwXwXwXwXwXwXwXwXwXwXwXwXwXwXwXwXwXwXwX<.6XqX[.4.K.x.wXwXwX",
"wXwXwXg.qXqXqXqXqXqXqXqXqXqXqXqXqXqXqXqXqXqXqX9X`.%.3 + $ @ wXwXwXwXwXwXwXwXwXwXwXwXwXwXwXwXwXwXwXwXwXwXwX&.=XqXqXd.6.n.wXwXwXwX",
"wXwXwX#.;XqXqXqXqXqXqXqXqXqXqXqXqXqXqXqXqXqX.X2.7 + + + $ & 8 wXwXwXwXwXwXwXwXwXwXwXwXwXwXwXwXwXwXwXwXwX] `.qXqX;Xo.c.d wXwXwXwX",
"wXwXwXwXf.qXqXqXqXqXqXqXqXqXqXqXqXqXqXqX>Xg.U # X X o + $ 8 8 9 wXwXwXwXwXwXwXwXwXwXwXwXwXwXwXwXwXwXF w.z.0XqXqXj.{ B wXwXwXwXwX",
"wXwXwXwX#.oXqXqXqXqXqXqXqXqXqXqXqXqXqXqX'.'     . X + + $ & 8 q w 9 wXwXwXwXwXwXwXwXwXwXwXwXwXwXwXL.~.g.0XqXqX=XX.M wXwXwXwXwXwX",
"wXwXwXwXwXs.0XqXqXqXqXqXqXqXqXqXqXqXqXqXqXz.L . . X o + $ & 9 q i p p e wXwXwXwXwXwXwXwXwXwXD V.W.Q.d.6XqXqX0X2.h wXwXwXwXwXwXwX",
"wXwXwXwXwX#.[.qXqXqXqXqXqXqXqXqXqXqXqXqXqX0Xj.L X X + + $ & 9 q w p d M B M M M N B Z J x.L.Y.R.p.g.9XqXqXqX`.E wXwXwXwXwXwXwXwX",
"wXwXwXwXwXwX&.4XqXqXqXqXqXqXqXqXqXqXqXqXqXqX0Xk.I X o + $ & 8 q e i d M B Z D J x.n.B.C.K.P.U.e.z.0XqXqXqX>X..wXwXwXwXwXwXwXwXwX",
"wXwXwXwXwXwXwXj.qXqXqXqXqXqXqXqXqXqXqXqXqXqXqXqX).~ = + $ & 9 q e p a M B Z D J x.n.B.C.K.S.<.[.qXqXqXqX9Xa.6 wXwXwXwXwXwXwXwXwX",
"wXwXwXwXwXwXwX@.{.qXqXqXqXqXqXqXqXqXqXqXqXqXqXqXqX X%.3 # & 9 q e p d f B Z D J x.c.B.M.,.g.<XqXqXqXqXqXz.~ wXwXwXwXwXwXwXwXwXwX",
"wXwXwXwXwXwXwXwX&.,XqXqXqXqXqXqXqXqXqXqXqXqXqXqXqXqX1Xj.] 4 9 0 e p d f C Z D J 7.9.=.r.XXqXqXqXqXqXqX'...wXwXwXwXwXwXwXwXwXwXwX",
"wXwXwXwXwXwXwXwXwX<.5XqXqXqXqXqXqXqXqXqXqXqXqXqXqXqXqXqX;Xz.%./ l k z n m [ ` *.>.k.oXqXqXqXqXqXqXqX X#.wXwXwXwXwXwXwXwXwXwXwXwX",
"wXwXwXwXwXwXwXwXwXwXd.7XqXqXqXqXqXqXqXqXqXqXqXqXqXqXqXqXqXqX9X=X[.z.j.g.j.^.[.oX9XqXqXqXqXqXqXqXqX X&.wXwXwXwXwXwXwXwXwXwXwXwXwX",
"wXwXwXwXwXwXwXwXwXwXwXd.9XqXqXqXqXqXqXqXqXqXqXqXqXqXqXqXqXqXqXqXqXqXqXqXqXqXqXqXqXqXqXqXqXqXqXqX}.#.wXwXwXwXwXwXwXwXwXwXwXwXwXwX",
"wXwXwXwXwXwXwXwXwXwXwXwXd.5XqXqXqXqXqXqXqXqXqXqXqXqXqXqXqXqXqXqXqXqXqXqXqXqXqXqXqXqXqXqXqXqXqX`.#.wXwXwXwXwXwXwXwXwXwXwXwXwXwXwX",
"wXwXwXwXwXwXwXwXwXwXwXwXwX<.>XqXqXqXqXqXqXqXqXqXqXqXqXqXqXqXqXqXqXqXqXqXqXqXqXqXqXqXqXqXqX6Xh.&.wXwXwXwXwXwXwXwXwXwXwXwXwXwXwXwX",
"wXwXwXwXwXwXwXwXwXwXwXwXwXwX&.}.qXqXqXqXqXqXqXqXqXqXqXqXqXqXqXqXqXqXqXqXqXqXqXqXqXqXqXqX.X<.wXwXwXwXwXwXwXwXwXwXwXwXwXwXwXwXwXwX",
"wXwXwXwXwXwXwXwXwXwXwXwXwXwXwX@.j.4XqXqXqXqXqXqXqXqXqXqXqXqXqXqXqXqXqXqXqXqXqXqXqX9X.Xd.&.wXwXwXwXwXwXwXwXwXwXwXwXwXwXwXwXwXwXwX",
"wXwXwXwXwXwXwXwXwXwXwXwXwXwXwXwXwX&.`.6XqXqXqXqXqXqXqXqXqXqXqXqXqXqXqXqXqXqXqX4X[.<.#.wXwXwXwXwXwXwXwXwXwXwXwXwXwXwXwXwXwXwXwXwX",
"wXwXwXwXwXwXwXwXwXwXwXwXwXwXwXwXwXwX#.&.(.;X0XqXqXqXqXqXqXqXqXqXqXqXqXqX1X}.h.%.#.wXwXwXwXwXwXwXwXwXwXwXwXwXwXwXwXwXwXwXwXwXwXwX",
"wXwXwXwXwXwXwXwXwXwXwXwXwXwXwXwXwXwXwXwXwX&.<.z.{.-X4X9X0X9X5X,XoX{.!.<.&.#.wXwXwXwXwXwXwXwXwXwXwXwXwXwXwXwXwXwXwXwXwXwXwXwXwXwX",
"wXwXwXwXwXwXwXwXwXwXwXwXwXwXwXwXwXwXwXwXwXwXwXwX&.#.#.@.#.#.@.#.&.&.wXwXwXwXwXwXwXwXwXwXwXwXwXwXwXwXwXwXwXwXwXwXwXwXwXwXwXwXwXwX"
};
